<?xml version="1.0" encoding="UTF-8"?>
<svg id="Layer_1" xmlns="http://www.w3.org/2000/svg" xmlns:xlink="http://www.w3.org/1999/xlink" version="1.1" viewBox="0 0 1584 612">
  <!-- Generator: Adobe Illustrator 30.3.0, SVG Export Plug-In . SVG Version: 2.1.3 Build 182)  -->
  <defs>
    <style>
      .st0, .st1 {
        fill: none;
      }

      .st2 {
        fill: #231f20;
      }

      .st1 {
        stroke: #fff;
        stroke-linejoin: bevel;
        stroke-width: .2px;
      }

      .st3 {
        clip-path: url(#clippath);
      }
    </style>
    <clipPath id="clippath">
      <rect class="st0" x="154.5" y="212.9" width="1274.6" height="186.2"/>
    </clipPath>
  </defs>
  <g class="st3">
    <path class="st2" d="M1356.2,353.2h72.1v-13h-59.1v-100.6h-13v113.5ZM1077.3,313.7l13.5-61.1h10.6l13.3,61.1h-37.5ZM1055.3,353.2h13.3l5.8-26.5h43.3l5.8,26.5h13.3l-25.2-113.5h-30.6l-25.6,113.5ZM723.6,398.3h37.2l111.9-184.5h-37.2l-111.9,184.5ZM478.1,296.2v-43.6h28.1c5.9,0,8.3.9,13,4.7,5.2,4.3,5.9,6.1,5.9,10.6v13c0,4.5-.7,6.3-5.9,10.6-4.7,3.8-7,4.7-13,4.7h-28.1ZM465.1,353.2h13v-44h28.1c9.4,0,14.2-2,22.5-9,8.3-7,9.4-10.3,9.4-18.6v-14.4c0-8.3-1.1-11.5-9.4-18.6-8.3-7-13.2-9-22.5-9h-41.1v113.5ZM199.1,340.2h-11.9c-5.9,0-8.3-.9-13-4.7-5.2-4.3-5.9-6.1-5.9-10.6v-57c0-4.5.7-6.3,5.9-10.6,4.7-3.8,7-4.7,13-4.7h11.9c5.9,0,8.5.9,13.2,4.7,5,4.1,5.8,6.1,5.8,10.6v57c0,4.5-.7,6.5-5.8,10.6-4.7,3.8-7.2,4.7-13.2,4.7M187.2,353.2h11.9c9.4,0,14.2-2,22.5-9,8.3-7,9.4-10.3,9.4-18.6v-58.4c0-8.3-1.1-11.5-9.4-18.6-8.3-7-13.2-9-22.5-9h-11.9c-9.4,0-14.2,2-22.5,9-8.3,7-9.4,10.3-9.4,18.6v58.4c0,8.3,1.1,11.5,9.4,18.6,8.3,7,13.2,9,22.5,9"/>
    <path class="st1" d="M1356.2,353.2h72.1v-13h-59.1v-100.6h-13v113.5ZM1077.3,313.7l13.5-61.1h10.6l13.3,61.1h-37.5ZM1055.3,353.2h13.3l5.8-26.5h43.3l5.8,26.5h13.3l-25.2-113.5h-30.6l-25.6,113.5ZM723.6,398.3h37.2l111.9-184.5h-37.2l-111.9,184.5ZM478.1,296.2v-43.6h28.1c5.9,0,8.3.9,13,4.7,5.2,4.3,5.9,6.1,5.9,10.6v13c0,4.5-.7,6.3-5.9,10.6-4.7,3.8-7,4.7-13,4.7h-28.1ZM465.1,353.2h13v-44h28.1c9.4,0,14.2-2,22.5-9,8.3-7,9.4-10.3,9.4-18.6v-14.4c0-8.3-1.1-11.5-9.4-18.6-8.3-7-13.2-9-22.5-9h-41.1v113.5ZM199.1,340.2h-11.9c-5.9,0-8.3-.9-13-4.7-5.2-4.3-5.9-6.1-5.9-10.6v-57c0-4.5.7-6.3,5.9-10.6,4.7-3.8,7-4.7,13-4.7h11.9c5.9,0,8.5.9,13.2,4.7,5,4.1,5.8,6.1,5.8,10.6v57c0,4.5-.7,6.5-5.8,10.6-4.7,3.8-7.2,4.7-13.2,4.7ZM187.2,353.2h11.9c9.4,0,14.2-2,22.5-9,8.3-7,9.4-10.3,9.4-18.6v-58.4c0-8.3-1.1-11.5-9.4-18.6-8.3-7-13.2-9-22.5-9h-11.9c-9.4,0-14.2,2-22.5,9-8.3,7-9.4,10.3-9.4,18.6v58.4c0,8.3,1.1,11.5,9.4,18.6,8.3,7,13.2,9,22.5,9Z"/>
  </g>
</svg>