<?xml version="1.0" encoding="UTF-8"?>
<svg id="Layer_1" xmlns="http://www.w3.org/2000/svg" xmlns:xlink="http://www.w3.org/1999/xlink" version="1.1" viewBox="0 0 1584 612">
  <!-- Generator: Adobe Illustrator 30.3.0, SVG Export Plug-In . SVG Version: 2.1.3 Build 182)  -->
  <defs>
    <style>
      .st0 {
        fill: none;
      }

      .st1 {
        fill: #231f20;
      }

      .st2 {
        clip-path: url(#clippath);
      }
    </style>
    <clipPath id="clippath">
      <rect class="st0" x="109.5" y="338.9" width="1420.5" height="37.3"/>
    </clipPath>
  </defs>
  <g class="st2">
    <path class="st1" d="M1520,369h6.1c2.2,0,3.9-1.8,3.9-3.9v-5.5h-1.6v5.5c0,1.4-1.1,2.4-2.4,2.4h-6c-1.4,0-2.4-1.1-2.4-2.4v-7.3c0-.6.1-1.2.3-1.6l3.1-7.1c.4-.8,1.2-1.4,2.2-1.4h6.8v-1.5h-6.8c-2,0-3.1,1-3.9,2.9l-3.2,7c0,.4-.1,1.3-.1,1.9v7.2c0,2.2,1.8,3.9,4,3.9M1470.5,369h1.5v-19.9h1l8.4,19.9h3.1v-22.9h-1.5v20h-1l-8.5-20h-3v22.9ZM1437.2,369h1.5v-22.9h-1.5v22.9ZM1391.4,369h1.5v-19.9h1l8.4,19.9h3.1v-22.9h-1.5v20h-1l-8.5-20h-3v22.9ZM1347.7,357.1v-9.5h6.6c1.6,0,2.2.3,3.4,1.2,1.4,1.1,1.5,1.5,1.5,2.7v1.8c0,1.1-.2,1.6-1.5,2.7-1.2.9-1.8,1.2-3.4,1.2h-6.6ZM1346.2,369h1.5v-10.4h5.5l5.9,10.4h1.8l-5.9-10.4c1.5-.1,2.4-.6,3.8-1.8,1.7-1.4,1.9-2.1,1.9-3.7v-1.4c0-1.7-.2-2.3-1.9-3.7-1.7-1.4-2.7-1.8-4.5-1.8h-8.1v22.9ZM1302.8,361.8l3.5-14.2h2.7l3.4,14.2h-9.5ZM1299.5,369h1.6l1.4-5.7h10.2l1.3,5.7h1.6l-5.6-22.9h-4.8l-5.7,22.9ZM1255.4,369h14.1v-1.5h-12.6v-9.6h10.8v-1.5h-10.8v-8.7h12.6v-1.5h-14.1v22.9ZM1210.9,369h14v-1.5h-12.5v-21.4h-1.5v22.9ZM1140.6,367.5h-7v-19.9h7c1,0,1.9.7,2.3,1.5l3.3,6.7c.2.5.4,1.2.4,1.9s-.2,1.5-.4,1.9l-3.3,6.6c-.4.8-1.2,1.5-2.3,1.5M1132.1,369h8.6c1.8,0,2.8-.8,3.7-2.5l3.3-6.6c.3-.6.5-1.5.5-2.3s-.2-1.9-.5-2.4l-3.3-6.6c-.8-1.6-1.9-2.5-3.7-2.5h-8.6v23ZM1086.8,369h14.1v-1.5h-12.6v-9.6h10.8v-1.5h-10.8v-8.7h12.6v-1.5h-14.1v22.9ZM1053.5,369h1.5v-22.9h-1.5v22.9ZM1009,369h14v-1.5h-12.5v-21.4h-1.5v22.9ZM964.7,358.1v-10.4h6.3c1.6,0,2.2.3,3.4,1.2,1.4,1.1,1.5,1.5,1.5,2.7v2.7c0,1.1-.2,1.6-1.5,2.7-1.2.9-1.8,1.2-3.4,1.2h-6.3ZM963.2,369h1.5v-9.4h6.3c1.9,0,2.9-.4,4.5-1.8,1.7-1.4,1.9-2.1,1.9-3.7v-2.4c0-1.7-.2-2.3-1.9-3.7-1.7-1.4-2.7-1.8-4.5-1.8h-7.9v22.9ZM918.9,358.1v-10.4h6.3c1.6,0,2.2.3,3.4,1.2,1.4,1.1,1.5,1.5,1.5,2.7v2.7c0,1.1-.2,1.6-1.5,2.7-1.2.9-1.8,1.2-3.4,1.2h-6.3ZM917.4,369h1.5v-9.4h6.3c1.9,0,2.9-.4,4.6-1.8,1.7-1.4,1.9-2.1,1.9-3.7v-2.4c0-1.7-.2-2.3-1.9-3.7-1.7-1.4-2.7-1.8-4.6-1.8h-7.9v22.9ZM874,361.8l3.5-14.2h2.7l3.4,14.2h-9.5ZM870.7,369h1.6l1.4-5.7h10.2l1.3,5.7h1.6l-5.6-22.9h-4.8l-5.7,22.9ZM814.8,376.2h5.9l22.6-37.3h-5.9l-22.6,37.3ZM774.2,369h14.1v-1.5h-12.6v-9.6h10.8v-1.5h-10.8v-8.7h12.6v-1.5h-14.1v22.9ZM736,369h7.3v-1.5h-7.3c-1.1,0-1.9-.8-2.3-1.5l-3.3-6.6c-.2-.4-.4-1.2-.4-1.8s.2-1.4.4-1.9l3.2-6.7c.4-.7,1.3-1.4,2.3-1.4h7.3v-1.5h-7.3c-1.8,0-2.9.9-3.7,2.5l-3.3,6.6c-.3.6-.5,1.6-.5,2.4s.2,1.7.5,2.4l3.3,6.6c.9,1.7,1.9,2.5,3.7,2.5M696.5,369h1.5v-22.9h-1.5v22.9ZM658.3,369h1.5v-21.4h6.2v-1.5h-13.8v1.5h6.1v21.4ZM615.1,369h7.3v-1.5h-7.3c-1.1,0-1.9-.8-2.3-1.5l-3.3-6.6c-.2-.4-.4-1.2-.4-1.8s.2-1.4.4-1.9l3.2-6.7c.4-.7,1.3-1.4,2.3-1.4h7.3v-1.5h-7.3c-1.8,0-2.9.9-3.7,2.5l-3.3,6.6c-.3.6-.5,1.6-.5,2.4s.2,1.7.5,2.4l3.3,6.6c.9,1.7,1.9,2.5,3.7,2.5M566.7,361.8l3.5-14.2h2.7l3.4,14.2h-9.5ZM563.3,369h1.6l1.4-5.7h10.2l1.3,5.7h1.6l-5.6-22.9h-4.8l-5.7,22.9ZM520.8,357.1v-9.5h6.6c1.6,0,2.2.3,3.4,1.2,1.4,1.1,1.5,1.5,1.5,2.7v1.8c0,1.1-.2,1.6-1.5,2.7-1.2.9-1.8,1.2-3.4,1.2h-6.6ZM519.3,369h1.5v-10.4h5.5l5.9,10.4h1.8l-5.9-10.4c1.5-.1,2.4-.6,3.8-1.8,1.7-1.4,1.9-2.1,1.9-3.7v-1.4c0-1.7-.2-2.3-1.9-3.7-1.7-1.4-2.7-1.8-4.5-1.8h-8.1v22.9ZM475,358.1v-10.4h6.3c1.6,0,2.2.3,3.4,1.2,1.4,1.1,1.5,1.5,1.5,2.7v2.7c0,1.1-.2,1.6-1.5,2.7-1.2.9-1.8,1.2-3.4,1.2h-6.3ZM473.5,369h1.5v-9.4h6.3c1.9,0,2.9-.4,4.6-1.8,1.7-1.4,1.9-2.1,1.9-3.7v-2.4c0-1.7-.2-2.3-1.9-3.7-1.7-1.4-2.7-1.8-4.6-1.8h-7.9v22.9ZM409.1,369h14v-1.5h-12.5v-21.4h-1.5v22.9ZM365.7,361.8l3.5-14.2h2.7l3.4,14.2h-9.5ZM362.3,369h1.6l1.4-5.7h10.2l1.3,5.7h1.6l-5.6-22.9h-4.8l-5.7,22.9ZM317.8,369h1.5v-19.9h1l8.4,19.9h3.1v-22.9h-1.5v20h-1l-8.5-20h-3v22.9ZM284.5,369h1.5v-22.9h-1.5v22.9ZM243,369h6.1c2.2,0,3.9-1.8,3.9-3.9v-5.5h-1.6v5.5c0,1.4-1.1,2.4-2.4,2.4h-6c-1.4,0-2.4-1.1-2.4-2.4v-7.3c0-.6.1-1.2.3-1.6l3.1-7.1c.4-.8,1.2-1.4,2.2-1.4h6.8v-1.5h-6.8c-2,0-3.1,1-3.9,2.9l-3.2,7c0,.4-.1,1.3-.1,1.9v7.2c0,2.2,1.8,3.9,4,3.9M206,369h1.5v-22.9h-1.5v22.9ZM162.3,357.1v-9.5h6.6c1.6,0,2.2.3,3.4,1.2,1.4,1.1,1.5,1.5,1.5,2.7v1.8c0,1.1-.2,1.6-1.5,2.7-1.2.9-1.8,1.2-3.4,1.2h-6.6ZM160.8,369h1.5v-10.4h5.5l5.9,10.4h1.8l-5.9-10.4c1.5-.1,2.4-.6,3.8-1.8,1.7-1.4,1.9-2.1,1.9-3.7v-1.4c0-1.7-.2-2.3-1.9-3.7-1.7-1.4-2.7-1.8-4.6-1.8h-8.1v22.9ZM118.4,367.5h-2.4c-1.6,0-2.1-.2-3.4-1.2-1.3-1.1-1.5-1.5-1.5-2.7v-12.2c0-1.1.2-1.6,1.5-2.7,1.3-1,1.9-1.2,3.4-1.2h2.4c1.5,0,2.2.3,3.4,1.2,1.3,1.1,1.5,1.5,1.5,2.7v12.2c0,1.1-.2,1.6-1.5,2.7-1.2.9-1.9,1.2-3.4,1.2M116,369h2.4c1.9,0,2.9-.4,4.5-1.8,1.7-1.4,1.9-2.1,1.9-3.7v-11.8c0-1.7-.2-2.3-1.9-3.7-1.7-1.4-2.7-1.8-4.5-1.8h-2.4c-1.9,0-2.9.4-4.5,1.8s-1.9,2.1-1.9,3.7v11.8c0,1.7.2,2.3,1.9,3.7s2.7,1.8,4.5,1.8"/>
  </g>
</svg>