<?xml version="1.0" encoding="UTF-8"?>
<svg id="Layer_2" xmlns="http://www.w3.org/2000/svg" version="1.1" viewBox="0 0 1000 1000">
  <!-- Generator: Adobe Illustrator 30.1.0, SVG Export Plug-In . SVG Version: 2.1.1 Build 136)  -->
  <g id="Layer_1-2">
    <g>
      <ellipse cx="500" cy="500" rx="161.97" ry="134.98"/>
      <path d="M500,254.29c-225.72,0-408.7,110-408.7,245.71s182.98,245.71,408.7,245.71,408.7-110,408.7-245.71-182.99-245.71-408.7-245.71ZM843.09,572.07c-17.28,24.56-42.58,46.96-75.19,66.57-34.1,20.51-74.11,36.68-118.9,48.07-47.09,11.97-97.22,18.04-148.99,18.04s-101.9-6.07-148.99-18.04c-44.79-11.39-84.79-27.56-118.9-48.07-32.61-19.61-57.91-42.01-75.19-66.57-16.36-23.26-24.66-47.5-24.66-72.07s8.3-48.82,24.66-72.07c17.28-24.56,42.58-46.96,75.19-66.57,34.1-20.51,74.11-36.68,118.9-48.07,47.09-11.97,97.22-18.04,148.99-18.04s101.9,6.07,148.99,18.04c44.79,11.39,84.79,27.56,118.91,48.07,32.61,19.61,57.91,42.01,75.19,66.57,16.36,23.26,24.66,47.5,24.66,72.07s-8.3,48.82-24.66,72.07h0Z"/>
    </g>
  </g>
</svg>