<?xml version="1.0" encoding="UTF-8"?>
<svg id="Layer_2" data-name="Layer 2" xmlns="http://www.w3.org/2000/svg" viewBox="0 0 1898.83 167.59">
  <g id="Layer_1-2" data-name="Layer 1">
    <g>
      <path d="M0,156.41h1.03c0,2.9,2.07,4.14,10.14,4.14h98.48c8.07,0,10.34-1.24,10.34-4.14h1.03v11.17H0v-11.17ZM30,120c-9.52-8.07-10.76-11.79-10.76-21.31v-29.79c0-9.52,1.24-13.24,10.76-21.31,9.52-8.07,15.1-10.35,25.86-10.35h9.52c10.76,0,16.35,2.28,25.86,10.35,9.52,8.07,10.76,11.79,10.76,21.31v29.79c0,9.52-1.24,13.24-10.76,21.31-9.52,8.07-15.1,10.35-25.86,10.35h-9.52c-10.76,0-16.35-2.28-25.86-10.35ZM84.62,114.83c7.45-6,8.69-8.69,8.69-15.1v-31.86c0-6.41-1.24-9.1-8.69-15.1-6.83-5.38-10.55-6.83-19.24-6.83h-9.52c-8.9,0-12.21,1.24-19.45,6.83-7.45,6-8.48,8.69-8.48,15.1v31.86c0,6.41,1.03,9.1,8.48,15.1,7.24,5.59,10.55,6.83,19.45,6.83h9.52c8.69,0,12.41-1.45,19.24-6.83Z"/>
      <path d="M121.03,156.41h1.03c0,2.9,2.07,4.14,10.14,4.14h72.41c8.07,0,10.34-1.24,10.34-4.14h1.03v11.17h-94.97v-11.17ZM178.96,45.93c-5.38,0-11.17.83-18.83,8.69-8.69,8.9-9.1,12.21-9.1,17.17v58.55h-8.69V37.24h4.55l3.72,15.1c1.45-1.66,3.1-3.1,4.76-4.76,10.97-10.76,16.55-10.35,22.55-10.35,13.45,0,26.28,10.14,27.52,30l1.03,16.35h-8.9l-1.24-17.79c-.83-15.31-9.1-19.86-17.38-19.86Z"/>
      <path d="M215.99,156.41h1.03c0,2.9,2.07,4.14,10.14,4.14h35.59c8.07,0,10.34-1.24,10.34-4.14h1.03v11.17h-58.14v-11.17ZM231.3,19.45v-10.55c0-2.48,1.86-4.55,4.34-4.55h17.59c2.48,0,4.55,2.07,4.55,4.55v10.55c0,2.48-2.07,4.55-4.55,4.55h-17.59c-2.48,0-4.34-2.07-4.34-4.55ZM240.2,37.24h8.69v93.1h-8.69V37.24Z"/>
      <path d="M328.34,99.1h-15.93c-2.9,0-5.59,2.07-6.62,4.14l-2.07,3.72c-2.07,3.93.21,9.72,6.62,9.72h32.07c10.76,0,16.55.21,25.86,6.83,9.52,6.41,10.76,11.59,10.76,17.38v2.48c0,5.79-1.24,10.96-10.76,17.38-2.9,2.07-5.17,3.31-7.65,4.35l18.62.41c7.86.21,10.34-4.55,10.34-9.1h1.03v11.17h-116.48v-11.17h1.03c0,4.55,2.28,6.83,10.14,7.03l21.93.41c-1.66-.83-3.1-1.66-5.17-3.1-9.52-6.41-10.76-11.59-10.76-17.38v-2.48c0-5.79,1.45-11.17,10.76-17.38l1.86-1.24c-8.69-2.28-12.21-8.48-8.28-16.76l2.69-5.38c1.66-3.52,4.35-5.79,8.48-7.03l-2.69-2.28c-9.52-8.07-10.76-11.79-10.76-21.31v-2.69c0-9.52,1.24-13.24,10.76-21.31,9.52-8.07,15.1-8.28,25.86-8.28h6.21c8.9,0,13.24-.83,19.66-5.59,7.03-5.59,8.07-7.24,8.07-14.28v-4.55h8.28v4.34c0,8.07-1.24,14.28-10.14,20.69-1.45,1.03-2.69,1.86-3.93,2.48v3.31l2.69,1.66c9.31,5.79,12,12,12,21.52v2.69c0,9.52-1.24,13.24-10.76,21.31-9.52,8.07-15.1,8.28-25.86,8.28h-7.86ZM362.06,154.34c7.45-4.55,8.28-7.65,8.28-10.96v-2.48c0-3.31-.62-6.41-8.28-11.17-6.41-4.14-9.93-4.55-19.03-4.55h-15.72c-8.9,0-12.41.41-18.83,4.55-7.66,4.76-8.48,7.86-8.48,11.17v2.48c0,3.31,1.03,6.41,8.48,10.96,6.21,4.14,9.93,4.55,18.83,4.55h15.72c9.1,0,12.83-.41,19.03-4.55ZM356.06,84.62c7.45-6,8.07-8.9,8.07-14.9v-3.1c0-6.21-1.03-9.1-8.07-14.9-6.62-4.97-9.93-5.79-18.83-5.79h-8.07c-8.9,0-12.21.83-18.83,5.79-7.24,5.79-8.28,8.69-8.28,14.9v3.1c0,6,.83,8.9,8.28,14.9,6.62,4.97,9.93,5.79,18.83,5.79h8.07c8.9,0,12.21-.83,18.83-5.79Z"/>
      <path d="M390.61,156.41h1.03c0,2.9,2.07,4.14,10.14,4.14h35.59c8.07,0,10.34-1.24,10.34-4.14h1.03v11.17h-58.14v-11.17ZM405.92,19.45v-10.55c0-2.48,1.86-4.55,4.34-4.55h17.59c2.48,0,4.55,2.07,4.55,4.55v10.55c0,2.48-2.07,4.55-4.55,4.55h-17.59c-2.48,0-4.34-2.07-4.34-4.55ZM414.81,37.24h8.69v93.1h-8.69V37.24Z"/>
      <path d="M448.74,156.41h1.03c0,2.9,2.07,4.14,10.14,4.14h93.72c8.07,0,10.34-1.24,10.34-4.14h1.03v11.17h-116.28v-11.17ZM513.71,45.93c-2.9,0-11.79,2.69-23.79,10.96-9.31,6.41-10.97,9.72-11.17,12.83v60.62h-8.69V37.24h4.55l4.14,16.35v.83c1.86-1.66,3.93-3.1,6.41-4.55,15.31-9.31,21.31-12.62,27.52-12.62,15.93,0,30,10.14,31.24,30l4.35,63.1h-9.52l-3.72-64.55c-1.03-15.52-10.76-19.86-21.31-19.86Z"/>
      <path d="M565.01,156.41h1.03c0,2.9,2.07,4.14,10.14,4.14h86.28c8.07,0,10.34-1.24,10.34-4.14h1.03v11.17h-108.83v-11.17ZM647.57,118.14v-1.03l-2.9,2.28c-10.55,8.07-16.35,10.97-27.1,10.97h-5.79c-9.72,0-13.86-.62-20.9-6.62-8.48-7.24-9.52-10.97-9.52-18.41v-3.93c0-7.45,1.03-9.72,9.52-16.97,7.03-6,11.17-7.03,20.9-7.45l32.69-1.45-.83-12.62c-.41-5.79-1.66-8.69-6.41-12-5.17-3.52-7.45-4.97-13.45-4.76l-30.83.41v-9.31h28.55c11.79,0,13.86,1.86,20.28,6.62,9.93,7.45,10.34,10.96,10.76,18.62l4.14,67.86h-4.97l-4.14-12.21ZM607.64,120.41h9.31c9.31,0,12.21-.62,20.69-6.41,8.28-6,8.9-9.31,8.48-14.9l-.83-13.86-37.66,1.45c-7.66.21-17.59,8.07-17.59,14.48v4.14c0,6.41,9.72,15.1,17.59,15.1Z"/>
      <path d="M673.84,156.41h1.03c0,2.9,2.07,4.14,10.14,4.14h28.55c8.07,0,10.34-1.24,10.34-4.14h1.03v11.17h-51.1v-11.17ZM695.15,2.48l8.48-2.48v130.34h-8.48V2.48Z"/>
      <path d="M724.94,156.41h1.03c0,2.9,2.28,4.14,10.34,4.14h3.52c8.28,0,9.52-1.24,9.52-4.14V37.24h5.59v119.17c0,2.9,1.24,4.14,9.31,4.14h3.1c8.07,0,10.34-1.24,10.34-4.14h1.03v11.17h-53.79v-11.17Z"/>
      <path d="M827.97,131.38l-19.24-17.38v50.9l81.93-2.28c8.07,0,10.14-1.66,10.14-6.21h1.03v11.17h-123.1v-11.17h1.03c0,4.55,2.28,9.1,10.34,8.9l9.93-.21V37.24h5.59l3.1,13.66v7.65l19.24-17.38c3.1-2.69,5.79-3.93,8.69-3.93h9.52c2.9,0,5.79,1.66,8.69,3.93l21.52,16.97c5.59,4.55,6.41,9.93,6.41,17.59v21.1c0,7.65-.83,13.03-6.41,17.59l-21.52,16.97c-2.9,2.28-5.79,3.93-8.69,3.93h-9.52c-2.9,0-5.59-1.24-8.69-3.93ZM851.97,123.1l18.21-14.07c2.69-2.28,3.93-5.17,3.93-9.1v-27.72c0-3.93-1.24-7.03-3.93-9.1l-18.21-14.28c-2.48-1.86-5.17-3.52-7.45-3.52h-6.21c-2.28,0-4.97,1.24-7.45,3.52l-18.21,16.76c-2.69,2.48-3.93,5.17-3.93,9.1v22.76c0,3.93,1.03,6.83,3.93,9.1l18.21,16.55c2.28,2.28,5.17,3.52,7.45,3.52h6.21c2.28,0,4.97-1.45,7.45-3.52Z"/>
      <path d="M902.04,156.41h1.03c0,2.9,2.07,4.14,10.14,4.14h72.41c8.07,0,10.34-1.24,10.34-4.14h1.03v11.17h-94.97v-11.17ZM959.97,45.93c-5.38,0-11.17.83-18.83,8.69-8.69,8.9-9.1,12.21-9.1,17.17v58.55h-8.69V37.24h4.55l3.72,15.1c1.45-1.66,3.1-3.1,4.76-4.76,10.97-10.76,16.55-10.35,22.55-10.35,13.45,0,26.28,10.14,27.52,30l1.03,16.35h-8.9l-1.24-17.79c-.83-15.31-9.1-19.86-17.38-19.86Z"/>
      <path d="M997,156.41h1.03c0,2.9,2.07,4.14,10.14,4.14h86.28c8.07,0,10.35-1.24,10.35-4.14h1.03v11.17h-108.83v-11.17ZM1079.55,118.14v-1.03l-2.9,2.28c-10.55,8.07-16.34,10.97-27.1,10.97h-5.79c-9.72,0-13.86-.62-20.9-6.62-8.48-7.24-9.52-10.97-9.52-18.41v-3.93c0-7.45,1.03-9.72,9.52-16.97,7.03-6,11.17-7.03,20.9-7.45l32.69-1.45-.83-12.62c-.41-5.79-1.66-8.69-6.41-12-5.17-3.52-7.45-4.97-13.45-4.76l-30.83.41v-9.31h28.55c11.79,0,13.86,1.86,20.28,6.62,9.93,7.45,10.34,10.96,10.76,18.62l4.14,67.86h-4.97l-4.14-12.21ZM1039.62,120.41h9.31c9.31,0,12.21-.62,20.69-6.41,8.28-6,8.9-9.31,8.48-14.9l-.83-13.86-37.66,1.45c-7.65.21-17.59,8.07-17.59,14.48v4.14c0,6.41,9.72,15.1,17.59,15.1Z"/>
      <path d="M1105.82,156.41h1.03c0,2.9,2.07,4.14,10.14,4.14h76.76c8.07,0,10.35-1.24,10.35-4.14h1.03v11.17h-99.31v-11.17ZM1135.82,120c-9.52-8.07-10.76-11.79-10.76-21.31v-29.79c0-9.52,1.24-13.24,10.76-21.31,9.52-8.07,15.1-10.35,25.86-10.35h28.97v8.69h-28.97c-8.9,0-12.21,1.24-19.45,6.83-7.45,6-8.48,8.69-8.48,15.1v31.86c0,6.41,1.03,9.1,8.48,15.1,7.24,5.59,10.55,6.83,19.45,6.83h28.97v8.69h-28.97c-10.76,0-16.34-2.28-25.86-10.35Z"/>
      <path d="M1205.13,156.41h1.03c0,2.9,2.07,4.14,10.14,4.14h58.34c8.07,0,10.35-1.24,10.35-4.14h1.03v11.17h-80.9v-11.17ZM1232.85,108.21v-62.69h-20.07v-8.28h13.03l7.03-7.03V7.24h9.1v30h30v8.28h-30v62.28c0,7.66,6.62,14.28,14.27,14.28h15.93l-.21,8.28h-15.72c-13.65,0-23.38-10.55-23.38-22.14Z"/>
      <path d="M1286.02,156.41h1.03c0,2.9,2.07,4.14,10.14,4.14h35.59c8.07,0,10.35-1.24,10.35-4.14h1.03v11.17h-58.14v-11.17ZM1301.33,19.45v-10.55c0-2.48,1.86-4.55,4.34-4.55h17.59c2.48,0,4.55,2.07,4.55,4.55v10.55c0,2.48-2.07,4.55-4.55,4.55h-17.59c-2.48,0-4.34-2.07-4.34-4.55ZM1310.23,37.24h8.69v93.1h-8.69V37.24Z"/>
      <path d="M1344.16,156.41h1.03c0,2.9,2.07,4.14,10.14,4.14h76.76c8.07,0,10.35-1.24,10.35-4.14h1.03v11.17h-99.31v-11.17ZM1374.16,120c-9.52-8.07-10.76-11.79-10.76-21.31v-29.79c0-9.52,1.24-13.24,10.76-21.31,9.52-8.07,15.1-10.35,25.86-10.35h28.97v8.69h-28.97c-8.9,0-12.21,1.24-19.45,6.83-7.45,6-8.48,8.69-8.48,15.1v31.86c0,6.41,1.03,9.1,8.48,15.1,7.24,5.59,10.55,6.83,19.45,6.83h28.97v8.69h-28.97c-10.76,0-16.34-2.28-25.86-10.35Z"/>
      <path d="M1443.46,156.41h1.03c0,2.9,2.07,4.14,10.14,4.14h95.79c8.07,0,10.34-1.24,10.34-4.14h1.03v11.17h-118.34v-11.17ZM1473.47,120c-9.52-8.07-10.76-11.79-10.76-21.31v-29.79c0-9.52,1.24-13.24,10.76-21.31,9.52-8.07,15.1-10.35,25.86-10.35h6.83c10.76,0,16.35,2.28,25.86,10.35,9.52,8.07,10.76,11.79,10.76,21.31v21.72h-71.38v8.9c0,6.21,1.03,9.1,8.48,15.1,7.03,5.38,10.14,6,18.83,6l42.83.41v9.31h-42.21c-10.76,0-16.34-2.28-25.86-10.35ZM1534.09,82.34v-13.65c0-6.21-1.24-9.1-8.69-15.1-7.04-5.38-10.55-6.83-19.24-6.83h-6.83c-8.9,0-12.41,1.45-19.45,6.83-7.45,6-8.48,8.9-8.48,15.1v13.65h62.69Z"/>
      <path d="M1561.81,156.41h1.03c0,2.9,2.28,4.14,10.34,4.14h3.52c8.28,0,9.52-1.24,9.52-4.14V37.24h5.59v119.17c0,2.9,1.24,4.14,9.31,4.14h3.1c8.07,0,10.35-1.24,10.35-4.14h1.03v11.17h-53.79v-11.17Z"/>
      <path d="M1615.6,156.41h1.03c0,2.9,2.07,4.14,10.14,4.14h28.55c8.07,0,10.35-1.24,10.35-4.14h1.03v11.17h-51.1v-11.17ZM1636.91,2.48l8.48-2.48v130.34h-8.48V2.48Z"/>
      <path d="M1666.7,156.41h1.03c0,2.9,2.07,4.14,10.14,4.14h86.28c8.07,0,10.35-1.24,10.35-4.14h1.03v11.17h-108.83v-11.17ZM1749.25,118.14v-1.03l-2.9,2.28c-10.55,8.07-16.34,10.97-27.1,10.97h-5.79c-9.72,0-13.86-.62-20.9-6.62-8.48-7.24-9.52-10.97-9.52-18.41v-3.93c0-7.45,1.03-9.72,9.52-16.97,7.03-6,11.17-7.03,20.9-7.45l32.69-1.45-.83-12.62c-.41-5.79-1.66-8.69-6.41-12-5.17-3.52-7.45-4.97-13.45-4.76l-30.83.41v-9.31h28.55c11.79,0,13.86,1.86,20.28,6.62,9.93,7.45,10.34,10.96,10.76,18.62l4.14,67.86h-4.97l-4.14-12.21ZM1709.32,120.41h9.31c9.31,0,12.21-.62,20.69-6.41,8.28-6,8.9-9.31,8.48-14.9l-.83-13.86-37.66,1.45c-7.65.21-17.59,8.07-17.59,14.48v4.14c0,6.41,9.72,15.1,17.59,15.1Z"/>
      <path d="M1775.52,156.41h1.03c0,2.9,2.07,4.14,10.14,4.14h100.76c8.07,0,10.35-1.24,10.35-4.14h1.03v11.17h-123.31v-11.17ZM1810.28,118.55l-4.76-4.55v2.69l-3.1,13.66h-5.59V0h8.69v53.59l5.38-4.97c10.34-9.1,16.55-11.38,25.86-11.38h8.9c8.07,0,14.28,1.66,22.97,9.52,9.1,8.28,10.96,11.59,10.96,19.66v34.76c0,8.07-1.45,11.79-10.96,19.86-7.24,6-13.03,9.31-22.97,9.31h-8.9c-9.31,0-15.93-2.28-26.48-11.79ZM1862,114.62c7.45-6,8.9-9.72,8.9-15.93v-29.79c0-6.41-1.45-9.93-8.9-15.93-7.03-6-12-7.66-19.03-7.66h-2.48c-8.28,0-12.83,1.03-23.17,10.35-9.93,9.1-11.79,12-11.79,19.66v16.97c0,7.66,1.86,10.55,11.79,19.66,10.34,9.31,14.9,10.35,23.17,10.35h2.48c7.04,0,12-1.66,19.03-7.66Z"/>
    </g>
  </g>
</svg>