<?xml version="1.0" encoding="UTF-8"?>
<svg id="Layer_2" data-name="Layer 2" xmlns="http://www.w3.org/2000/svg" xmlns:xlink="http://www.w3.org/1999/xlink" viewBox="0 0 1137.52 29.84">
  <defs>
    <style>
      .cls-1 {
        fill: none;
      }

      .cls-2 {
        fill: #373535;
      }

      .cls-3 {
        clip-path: url(#clippath);
      }
    </style>
    <clipPath id="clippath">
      <rect class="cls-1" width="1137.52" height="29.84"/>
    </clipPath>
  </defs>
  <g id="Layer_1-2" data-name="Layer 1">
    <g class="cls-3">
      <path class="cls-2" d="M1129.48,24.11h4.9c1.75,0,3.15-1.43,3.15-3.15v-4.43h-1.25v4.4c0,1.11-.85,1.95-1.95,1.95h-4.84c-1.11,0-1.95-.87-1.95-1.95v-5.83c0-.47.12-.99.23-1.31l2.51-5.68c.29-.61.99-1.14,1.78-1.14h5.48v-1.22h-5.48c-1.6,0-2.45.82-3.09,2.3l-2.53,5.63c-.06.32-.12,1.08-.12,1.54v5.74c0,1.75,1.43,3.15,3.18,3.15M1089.85,24.11h1.19v-15.94h.82l6.76,15.94h2.45V5.75h-1.19v16.03h-.82l-6.79-16.03h-2.42v18.36ZM1063.17,24.11h1.22V5.75h-1.22v18.36ZM1026.45,24.11h1.19v-15.94h.82l6.76,15.94h2.45V5.75h-1.2v16.03h-.82l-6.79-16.03h-2.42v18.36ZM991.48,14.58v-7.61h5.25c1.25,0,1.75.2,2.71.96,1.11.87,1.22,1.22,1.22,2.13v1.43c0,.9-.15,1.25-1.22,2.13-.96.76-1.46.96-2.71.96h-5.25ZM990.25,24.11h1.22v-8.31h4.37l4.75,8.31h1.43l-4.72-8.34c1.17-.09,1.92-.47,3.06-1.43,1.34-1.14,1.52-1.66,1.52-3v-1.14c0-1.34-.18-1.86-1.52-3-1.34-1.14-2.13-1.46-3.64-1.46h-6.47v18.36ZM955.57,18.31l2.77-11.34h2.13l2.71,11.34h-7.61ZM952.85,24.11h1.31l1.11-4.58h8.19l1.08,4.58h1.28l-4.52-18.36h-3.88l-4.58,18.36ZM917.57,24.11h11.31v-1.22h-10.09v-7.69h8.66v-1.22h-8.66v-7h10.09v-1.22h-11.31v18.36ZM881.92,24.11h11.22v-1.22h-10V5.75h-1.22v18.36ZM825.63,22.89h-5.6V6.92h5.6c.82,0,1.51.52,1.84,1.17l2.62,5.33c.17.38.32.96.32,1.49,0,.49-.15,1.17-.32,1.51l-2.62,5.28c-.29.61-.96,1.19-1.84,1.19M818.81,24.11h6.85c1.46,0,2.21-.64,2.94-2.04l2.65-5.25c.23-.5.38-1.17.38-1.87s-.15-1.49-.38-1.95l-2.65-5.28c-.64-1.31-1.49-2.01-2.94-2.01h-6.85v18.39ZM782.58,24.11h11.31v-1.22h-10.09v-7.69h8.66v-1.22h-8.66v-7h10.09v-1.22h-11.31v18.36ZM755.89,24.11h1.22V5.75h-1.22v18.36ZM720.24,24.11h11.22v-1.22h-10V5.75h-1.22v18.36ZM684.78,15.34V6.98h5.07c1.25,0,1.75.2,2.71.96,1.11.87,1.22,1.22,1.22,2.13v2.19c0,.9-.15,1.25-1.22,2.13-.96.76-1.46.96-2.71.96h-5.07ZM683.56,24.11h1.22v-7.55h5.07c1.52,0,2.3-.32,3.64-1.46,1.34-1.14,1.52-1.66,1.52-3v-1.89c0-1.34-.18-1.86-1.52-3-1.34-1.14-2.13-1.46-3.64-1.46h-6.3v18.36ZM648.1,15.34V6.98h5.07c1.25,0,1.75.2,2.71.96,1.11.87,1.22,1.22,1.22,2.13v2.19c0,.9-.15,1.25-1.22,2.13-.96.76-1.46.96-2.71.96h-5.07ZM646.88,24.11h1.22v-7.55h5.07c1.52,0,2.3-.32,3.64-1.46,1.34-1.14,1.52-1.66,1.52-3v-1.89c0-1.34-.18-1.86-1.52-3-1.34-1.14-2.13-1.46-3.64-1.46h-6.3v18.36ZM612.19,18.31l2.77-11.34h2.13l2.71,11.34h-7.61ZM609.48,24.11h1.31l1.11-4.58h8.19l1.08,4.58h1.28l-4.52-18.36h-3.88l-4.58,18.36ZM564.75,29.84h4.69l18.09-29.84h-4.69l-18.09,29.84ZM532.27,24.11h11.31v-1.22h-10.08v-7.69h8.66v-1.22h-8.66v-7h10.08v-1.22h-11.31v18.36ZM501.61,24.11h5.83v-1.22h-5.86c-.87,0-1.55-.64-1.81-1.19l-2.62-5.31c-.18-.35-.32-.93-.32-1.46s.15-1.14.35-1.52l2.59-5.33c.29-.58,1.02-1.14,1.81-1.14h5.86v-1.22h-5.83c-1.46,0-2.33.76-2.97,2.01l-2.65,5.28c-.23.49-.38,1.25-.38,1.92s.15,1.37.41,1.89l2.62,5.25c.7,1.34,1.49,2.04,2.97,2.04M469.98,24.11h1.22V5.75h-1.22v18.36ZM439.42,24.11h1.22V6.98h4.93v-1.22h-11.05v1.22h4.9v17.14ZM404.82,24.11h5.83v-1.22h-5.86c-.87,0-1.55-.64-1.81-1.19l-2.62-5.31c-.18-.35-.32-.93-.32-1.46s.15-1.14.35-1.52l2.59-5.33c.29-.58,1.02-1.14,1.81-1.14h5.86v-1.22h-5.83c-1.46,0-2.33.76-2.97,2.01l-2.65,5.28c-.23.49-.38,1.25-.38,1.92s.15,1.37.41,1.89l2.62,5.25c.7,1.34,1.49,2.04,2.97,2.04M366.08,18.31l2.77-11.34h2.13l2.71,11.34h-7.61ZM363.37,24.11h1.31l1.11-4.58h8.19l1.08,4.58h1.28l-4.52-18.36h-3.88l-4.58,18.36ZM329.33,14.58v-7.61h5.25c1.25,0,1.75.2,2.71.96,1.11.87,1.22,1.22,1.22,2.13v1.43c0,.9-.15,1.25-1.22,2.13-.96.76-1.46.96-2.71.96h-5.25ZM328.11,24.11h1.22v-8.31h4.37l4.75,8.31h1.43l-4.72-8.34c1.17-.09,1.92-.47,3.06-1.43,1.34-1.14,1.52-1.66,1.52-3v-1.14c0-1.34-.17-1.86-1.52-3-1.34-1.14-2.13-1.46-3.64-1.46h-6.47v18.36ZM292.65,15.34V6.98h5.07c1.25,0,1.75.2,2.71.96,1.11.87,1.22,1.22,1.22,2.13v2.19c0,.9-.15,1.25-1.22,2.13-.96.76-1.46.96-2.71.96h-5.07ZM291.43,24.11h1.22v-7.55h5.07c1.51,0,2.3-.32,3.64-1.46,1.34-1.14,1.51-1.66,1.51-3v-1.89c0-1.34-.17-1.86-1.51-3-1.34-1.14-2.13-1.46-3.64-1.46h-6.3v18.36ZM239.84,24.11h11.22v-1.22h-10V5.75h-1.22v18.36ZM205.15,18.31l2.77-11.34h2.13l2.71,11.34h-7.61ZM202.44,24.11h1.31l1.11-4.58h8.19l1.08,4.58h1.28l-4.52-18.36h-3.88l-4.58,18.36ZM166.79,24.11h1.19v-15.94h.82l6.76,15.94h2.45V5.75h-1.19v16.03h-.82l-6.79-16.03h-2.42v18.36ZM140.11,24.11h1.22V5.75h-1.22v18.36ZM106.83,24.11h4.9c1.75,0,3.15-1.43,3.15-3.15v-4.43h-1.25v4.4c0,1.11-.84,1.95-1.95,1.95h-4.84c-1.11,0-1.95-.87-1.95-1.95v-5.83c0-.47.12-.99.23-1.31l2.51-5.68c.29-.61.99-1.14,1.78-1.14h5.48v-1.22h-5.48c-1.6,0-2.45.82-3.09,2.3l-2.54,5.63c-.06.32-.12,1.08-.12,1.54v5.74c0,1.75,1.43,3.15,3.18,3.15M77.23,24.11h1.22V5.75h-1.22v18.36ZM42.26,14.58v-7.61h5.25c1.25,0,1.75.2,2.71.96,1.11.87,1.22,1.22,1.22,2.13v1.43c0,.9-.15,1.25-1.22,2.13-.96.76-1.46.96-2.71.96h-5.25ZM41.03,24.11h1.22v-8.31h4.37l4.75,8.31h1.43l-4.72-8.34c1.17-.09,1.92-.47,3.06-1.43,1.34-1.14,1.52-1.66,1.52-3v-1.14c0-1.34-.17-1.86-1.52-3-1.34-1.14-2.13-1.46-3.64-1.46h-6.47v18.36ZM7.08,22.89h-1.92c-1.25,0-1.72-.17-2.74-.96-1.05-.85-1.19-1.22-1.19-2.13v-9.74c0-.9.15-1.28,1.19-2.13,1.02-.79,1.49-.96,2.74-.96h1.92c1.22,0,1.75.2,2.71.96,1.05.85,1.22,1.22,1.22,2.13v9.74c0,.9-.17,1.28-1.22,2.13-.96.76-1.49.96-2.71.96M5.16,24.11h1.92c1.52,0,2.3-.32,3.64-1.46,1.34-1.14,1.52-1.66,1.52-3v-9.44c0-1.34-.17-1.86-1.52-3-1.34-1.14-2.13-1.46-3.64-1.46h-1.92c-1.52,0-2.3.32-3.64,1.46S0,8.87,0,10.21v9.44c0,1.34.18,1.86,1.52,3s2.13,1.46,3.64,1.46"/>
    </g>
  </g>
</svg>
