<?xml version="1.0" encoding="UTF-8"?>
<svg id="Layer_1" xmlns="http://www.w3.org/2000/svg" version="1.1" viewBox="0 0 1080 1050">
  <!-- Generator: Adobe Illustrator 29.8.2, SVG Export Plug-In . SVG Version: 2.1.1 Build 3)  -->
  <defs>
    <style>
      .st0 {
        fill: #fff;
      }
    </style>
  </defs>
  <path class="st0" d="M345.01,182.95c0,53.12,107.54,32.39,107.54,111.42,0,46.64-36.28,76.44-79.03,76.44-47.94,0-89.4-34.98-89.4-102.35,0-103.65,98.47-203.42,255.24-203.42,147.7,0,256.54,85.51,256.54,217.67,0,229.33-327.8,217.67-327.8,344.64,0,41.46,29.8,66.07,76.44,66.07,36.28,0,80.33-14.25,120.49-46.64l5.18,9.07c-37.57,32.39-84.22,53.12-137.34,53.12-73.85,0-146.41-41.46-146.41-129.57,0-185.28,331.68-147.7,331.68-351.12,0-95.88-75.15-150.29-185.28-150.29s-187.87,59.6-187.87,104.95ZM523.8,815.22c47.94,0,85.51,37.57,85.51,85.51s-37.57,84.22-85.51,84.22-84.22-37.57-84.22-84.22,37.57-85.51,84.22-85.51Z"/>
</svg>